HIERARCHY
ROOT Hips
{
	OFFSET 0.000000 0.000000 0.000000
	CHANNELS 6 Xposition Yposition Zposition Xrotation Yrotation Zrotation
	JOINT LeftUpLeg_virtual
	{
		OFFSET 0.000000 0.000000 0.000000
		CHANNELS 3 Xrotation Yrotation Zrotation
		JOINT LeftUpLeg
		{
			OFFSET 13.026900 -6.336304 -1.092800
			CHANNELS 3 Xrotation Yrotation Zrotation
			JOINT LeftLeg
			{
				OFFSET 0.524474 -46.096886 9.782700
				CHANNELS 3 Xrotation Yrotation Zrotation
				JOINT LeftFoot
				{
					OFFSET -0.524474 -53.427422 -12.948200
					CHANNELS 3 Xrotation Yrotation Zrotation
					JOINT LeftToeBase
					{
						OFFSET 0.192200 -14.009700 16.364100
						CHANNELS 3 Xrotation Yrotation Zrotation
						JOINT LeftToe_End
						{
							OFFSET -1.784700 -0.561700 9.474800
							CHANNELS 3 Xrotation Yrotation Zrotation
							End Site
							{
								OFFSET 0 0 0
							}
						}
					}
				}
			}
		}
	}
	JOINT RightUpLeg_virtual
	{
		OFFSET 0.000000 0.000000 0.000000
		CHANNELS 3 Xrotation Yrotation Zrotation
		JOINT RightUpLeg
		{
			OFFSET -12.883000 -6.336304 -1.092800
			CHANNELS 3 Xrotation Yrotation Zrotation
			JOINT RightLeg
			{
				OFFSET -0.524587 -46.096825 9.782800
				CHANNELS 3 Xrotation Yrotation Zrotation
				JOINT RightFoot
				{
					OFFSET 0.524587 -53.427383 -12.948300
					CHANNELS 3 Xrotation Yrotation Zrotation
					JOINT RightToeBase
					{
						OFFSET -0.192200 -14.009700 16.364100
						CHANNELS 3 Xrotation Yrotation Zrotation
						JOINT RightToe_End
						{
							OFFSET 1.784700 -0.561700 9.474800
							CHANNELS 3 Xrotation Yrotation Zrotation
							End Site
							{
								OFFSET 0 0 0
							}
						}
					}
				}
			}
		}
	}
	JOINT Spine_virtual
	{
		OFFSET 0.000000 0.000000 0.000000
		CHANNELS 3 Xrotation Yrotation Zrotation
		JOINT Spine
		{
			OFFSET 0.072000 7.257294 -0.789700
			CHANNELS 3 Xrotation Yrotation Zrotation
			JOINT Spine1
			{
				OFFSET 0.000000 12.508769 -0.658067
				CHANNELS 3 Xrotation Yrotation Zrotation
				JOINT Spine1_split
				{
					OFFSET 0.000000 12.508769 -0.658067
					CHANNELS 3 Xrotation Yrotation Zrotation
					JOINT Spine2
					{
						OFFSET 0.000000 12.508769 -0.658067
						CHANNELS 3 Xrotation Yrotation Zrotation
						JOINT Neck_virtual
						{
							OFFSET 0.000000 0.000000 0.000000
							CHANNELS 3 Xrotation Yrotation Zrotation
							JOINT Neck
							{
								OFFSET 0.000000 14.033295 7.520400
								CHANNELS 3 Xrotation Yrotation Zrotation
								JOINT Head
								{
									OFFSET 0.000000 8.198502 5.703100
									CHANNELS 3 Xrotation Yrotation Zrotation
									JOINT HeadTop_End
									{
										OFFSET 0.000000 17.760803 13.332701
										CHANNELS 3 Xrotation Yrotation Zrotation
										End Site
										{
											OFFSET 0 0 0
										}
									}
								}
							}
						}
						JOINT LeftShoulder_virtual
						{
							OFFSET 0.000000 0.000000 0.000000
							CHANNELS 3 Xrotation Yrotation Zrotation
							JOINT LeftShoulder
							{
								OFFSET 6.292450 5.785301 -0.669000
								CHANNELS 3 Xrotation Yrotation Zrotation
								JOINT LeftShoulder_split
								{
									OFFSET 6.292450 5.785301 -0.669000
									CHANNELS 3 Xrotation Yrotation Zrotation
									JOINT LeftArm
									{
										OFFSET 13.907140 -6.093903 1.965100
										CHANNELS 3 Xrotation Yrotation Zrotation
										JOINT LeftForeArm
										{
											OFFSET 34.140198 0.000000 0.000000
											CHANNELS 3 Xrotation Yrotation Zrotation
											JOINT LeftHand
											{
												OFFSET 40.960209 0.000000 0.000000
												CHANNELS 3 Xrotation Yrotation Zrotation
												End Site
												{
													OFFSET 0 0 0
												}
											}
										}
									}
								}
							}
						}
						JOINT RightShoulder_virtual
						{
							OFFSET 0.000000 0.000000 0.000000
							CHANNELS 3 Xrotation Yrotation Zrotation
							JOINT RightShoulder
							{
								OFFSET -6.292450 5.785301 -0.669000
								CHANNELS 3 Xrotation Yrotation Zrotation
								JOINT RightShoulder_split
								{
									OFFSET -6.292450 5.785301 -0.669000
									CHANNELS 3 Xrotation Yrotation Zrotation
									JOINT RightArm
									{
										OFFSET -13.907140 -6.093903 1.965100
										CHANNELS 3 Xrotation Yrotation Zrotation
										JOINT RightForeArm
										{
											OFFSET -34.140198 0.000000 0.000000
											CHANNELS 3 Xrotation Yrotation Zrotation
											JOINT RightHand
											{
												OFFSET -40.960209 0.000000 0.000000
												CHANNELS 3 Xrotation Yrotation Zrotation
												End Site
												{
													OFFSET 0 0 0
												}
											}
										}
									}
								}
							}
						}
					}
				}
			}
		}
	}
}
MOTION
Frames: 10
Frame Time: 0.03333333
0.126743 156.954803 17.515945 0.000000 0.000000 0.000000 -85.662184 -8.123884 -2.129813 -10.034053 18.472424 15.067134 5.240780 4.664977 3.454191 14.882552 28.303496 -20.101435 -6.230713 -0.036218 0.768050 0.000000 0.000000 0.000000 -87.309454 -5.766854 -1.091032 -15.325524 -16.382793 -13.176829 15.965861 -4.299914 -6.918474 21.765958 -32.244906 28.507056 -12.479436 0.567739 -0.409894 0.000000 0.000000 0.000000 -85.090060 -7.837999 -3.007184 -0.658629 -2.300621 0.447993 -0.417440 -2.905326 0.741025 2.059880 3.168087 -0.556497 0.000000 0.000000 0.000000 -1.957190 -3.062443 0.462707 -13.471039 1.509912 0.317638 10.352300 -2.256966 3.888975 0.000000 0.000000 0.000000 -1.126336 -3.104185 1.127542 0.383100 3.844341 -2.432736 -2.540687 2.524912 -5.802975 41.956285 -32.925569 -47.402759 169.401437 -87.473768 169.882473 0.000000 0.000000 0.000000 -1.164495 -2.889862 0.656955 1.088255 -4.117094 12.949436 0.680896 3.038016 -0.259291 31.922009 34.176955 39.504035 173.570174 76.024568 -173.337101 0.000000 0.000000 0.000000 
0.253176 157.049393 17.876938 0.000000 0.000000 0.000000 -85.634316 -8.133335 -2.191431 -10.121036 18.194155 15.060874 5.296626 4.658886 3.470677 15.032177 28.315891 -20.128977 -6.096547 -0.020442 0.744787 0.000000 0.000000 0.000000 -87.296846 -5.704327 -1.061271 -15.097775 -16.294659 -12.937979 15.882835 -4.326287 -6.964262 21.599787 -32.350692 28.536841 -12.543752 0.599045 -0.462837 0.000000 0.000000 0.000000 -84.938955 -7.582017 -2.854143 -0.584637 -2.291782 0.625909 -0.262571 -2.859459 0.783574 1.888346 3.083831 -0.761667 0.000000 0.000000 0.000000 -1.916372 -3.038180 0.494617 -13.732812 1.753550 0.236891 10.499240 -1.936070 3.377148 0.000000 0.000000 0.000000 -0.886177 -3.065764 1.254290 0.217058 3.751968 -3.062494 -2.309738 3.214861 -5.008022 41.831398 -32.888297 -47.110905 167.913261 -87.978806 168.160145 0.000000 0.000000 0.000000 -0.874995 -2.805875 0.621487 1.137044 -3.860221 12.756283 0.892839 2.750584 -0.048237 29.882832 34.473334 39.640755 173.829954 74.968887 -173.646058 0.000000 0.000000 0.000000 
0.342954 157.259827 18.262733 0.000000 0.000000 0.000000 -85.655845 -8.092108 -2.156055 -10.248875 17.945345 15.067493 5.335493 4.717525 3.477179 15.085767 28.319943 -20.147887 -5.908858 0.007807 0.697683 0.000000 0.000000 0.000000 -87.269996 -5.545840 -0.952669 -14.843072 -15.969305 -12.578900 15.852872 -4.351221 -7.046234 21.384173 -32.542033 28.410071 -12.546031 0.654720 -0.528071 0.000000 0.000000 0.000000 -84.879457 -7.399181 -2.765190 -0.365488 -2.299750 0.877172 0.153016 -2.808888 0.811172 1.644274 2.640440 -0.902880 0.000000 0.000000 0.000000 -1.578459 -3.016261 0.506208 -13.804185 1.981392 -0.134363 10.500507 -1.203942 2.297552 0.000000 0.000000 0.000000 -0.313813 -3.070040 1.317873 0.057845 3.733658 -4.041980 -2.157844 3.816042 -4.126197 40.251889 -32.385608 -47.547590 170.010034 -89.214661 170.125327 0.000000 0.000000 0.000000 -0.407244 -2.762671 0.549201 1.089430 -3.212685 12.434489 1.020167 2.518473 0.705554 26.018450 35.199554 39.918122 175.044047 73.990510 -175.111092 0.000000 0.000000 0.000000 
0.386020 157.508804 18.598644 0.000000 0.000000 0.000000 -85.697858 -8.016924 -2.016317 -10.364177 17.813436 15.073367 5.372759 4.790215 3.482991 15.023488 28.303293 -20.171422 -5.844764 0.039575 0.665517 0.000000 0.000000 0.000000 -87.249137 -5.393467 -0.784513 -14.724030 -15.515499 -12.228963 15.920416 -4.334149 -7.136955 21.212107 -32.743561 28.199951 -12.465164 0.720585 -0.577479 0.000000 0.000000 0.000000 -84.961488 -7.351226 -2.744073 -0.027733 -2.273389 1.105798 0.824136 -2.649951 0.804544 1.355072 1.924598 -0.830200 0.000000 0.000000 0.000000 -0.944647 -2.886873 0.460692 -13.602987 2.064018 -0.681838 10.333601 -0.202701 0.819819 0.000000 0.000000 0.000000 0.559943 -2.990722 1.312085 -0.066932 3.778316 -5.149870 -1.947297 3.945382 -3.172034 37.711616 -31.658241 -48.270320 -33.323574 -89.414498 -33.253715 0.000000 0.000000 0.000000 0.213977 -2.654421 0.432567 0.935643 -2.226107 12.042996 0.983434 2.494614 1.597881 20.740583 36.158369 40.485007 176.574406 73.168873 -177.004830 0.000000 0.000000 0.000000 
0.400520 157.741150 18.889263 0.000000 0.000000 0.000000 -85.754937 -7.933044 -1.775598 -10.454635 17.825132 15.081073 5.359894 4.853453 3.499864 14.825844 28.269502 -20.161936 -5.910770 0.060609 0.672849 0.000000 0.000000 0.000000 -87.272435 -5.306960 -0.584461 -14.824898 -15.104962 -11.972748 16.083490 -4.271961 -7.216609 21.147765 -32.897954 27.962759 -12.268561 0.779358 -0.585707 0.000000 0.000000 0.000000 -85.193052 -7.453752 -2.765334 0.409041 -2.137092 1.208732 1.775705 -2.268448 0.762674 1.117519 1.246189 -0.553932 0.000000 0.000000 0.000000 -0.029488 -2.533693 0.354223 -13.066580 1.950648 -1.215368 10.041257 0.747535 -0.831726 0.000000 0.000000 0.000000 1.672178 -2.690059 1.230712 -0.137210 3.800280 -6.149466 -1.455927 3.533017 -2.411707 34.935140 -31.002526 -48.761779 -30.129853 -88.427413 -30.062381 0.000000 0.000000 0.000000 1.002190 -2.369339 0.262726 0.701014 -1.075332 11.695467 0.641287 2.458673 2.202646 14.438380 36.919102 41.539500 178.064889 72.123041 -178.895017 0.000000 0.000000 0.000000 
0.380877 157.925232 19.160606 0.000000 0.000000 0.000000 -85.805317 -7.880288 -1.471745 -10.518923 17.930478 15.096547 5.264245 4.885790 3.535059 14.427762 28.269067 -20.049698 -5.965167 0.061584 0.712711 0.000000 0.000000 0.000000 -87.263316 -5.280818 -0.335114 -15.078420 -14.863197 -11.825460 16.285884 -4.182525 -7.272615 21.123487 -32.985914 27.702668 -11.963529 0.821681 -0.548362 0.000000 0.000000 0.000000 -85.472434 -7.639132 -2.803255 0.903931 -1.811184 1.147166 3.016081 -1.596464 0.691857 0.853937 0.741697 -0.278433 0.000000 0.000000 0.000000 1.168788 -1.890813 0.202221 -12.116338 1.563886 -1.660041 9.702433 1.358821 -2.442853 0.000000 0.000000 0.000000 2.983720 -2.090594 1.097338 -0.148168 3.749495 -6.807797 -0.742772 2.766440 -1.865434 32.436162 -30.868152 -48.526182 -35.824342 -88.104932 -35.741451 0.000000 0.000000 0.000000 2.009126 -1.806183 0.062343 0.417944 0.111771 11.458695 0.251423 2.411987 2.548864 7.535013 37.094679 43.250855 179.030719 70.408008 179.773161 0.000000 0.000000 0.000000 
0.339308 158.086945 19.328625 0.000000 0.000000 0.000000 -85.820507 -7.832053 -1.142766 -10.531540 18.046582 15.122035 5.033782 4.857682 3.600318 13.817291 28.333732 -19.818383 -5.928232 0.040956 0.780023 0.000000 0.000000 0.000000 -87.231945 -5.278828 -0.051081 -15.326273 -14.833262 -11.757804 16.498404 -4.101414 -7.298810 21.058260 -33.017968 27.444202 -11.603318 0.840623 -0.475576 0.000000 0.000000 0.000000 -85.744269 -7.818550 -2.834410 1.440304 -1.294460 0.917531 4.552691 -0.653539 0.598637 0.757549 0.451802 0.021577 0.000000 0.000000 0.000000 2.649635 -0.971971 0.020907 -10.805650 0.976909 -1.964622 9.448048 1.482316 -3.870442 0.000000 0.000000 0.000000 4.466981 -1.213395 0.920400 -0.098480 3.562517 -7.013520 -0.069829 1.924419 -1.859819 30.552642 -31.555279 -47.226599 -44.701918 -88.296123 -44.579149 0.000000 0.000000 0.000000 3.297472 -0.962425 -0.130781 0.132243 1.201681 11.388727 -0.024690 2.479730 2.716681 0.311519 36.327283 45.590584 179.401394 67.779970 179.157050 0.000000 0.000000 0.000000 
0.290422 158.276764 19.447563 0.000000 0.000000 0.000000 -85.815473 -7.768834 -0.849420 -10.456680 18.058038 15.177010 4.680924 4.736041 3.686588 13.059887 28.466147 -19.536590 -5.835853 0.006455 0.867911 0.000000 0.000000 0.000000 -87.200752 -5.252342 0.209556 -15.443348 -15.007534 -11.746291 16.694244 -4.035400 -7.301413 20.873425 -32.986231 27.210968 -11.190268 0.838431 -0.392651 0.000000 0.000000 0.000000 -85.907312 -7.979758 -2.886881 1.975449 -0.618667 0.584803 6.396123 0.455980 0.491825 0.810762 0.333419 0.232322 0.000000 0.000000 0.000000 4.423416 0.143004 -0.158357 -9.233334 0.304161 -2.163550 9.420548 1.187314 -5.060898 0.000000 0.000000 0.000000 6.158413 -0.139493 0.720809 0.013929 3.287864 -6.781928 0.551340 1.235232 -2.372011 29.296795 -33.069372 -44.875600 -48.930714 -88.581557 -48.731815 0.000000 0.000000 0.000000 4.910639 0.090530 -0.288861 -0.095438 2.124588 11.533259 -0.127204 2.580334 2.819275 -6.663054 34.514483 48.303289 179.349812 64.349965 179.124184 0.000000 0.000000 0.000000 
0.275487 158.509766 19.511890 0.000000 0.000000 0.000000 -85.774274 -7.713715 -0.688311 -10.370728 17.889387 15.296709 4.351564 4.490050 3.781863 12.315225 28.623550 -19.293466 -5.788079 -0.033981 0.968037 0.000000 0.000000 0.000000 -87.135489 -5.167774 0.391666 -15.393672 -15.305185 -11.809442 16.795676 -3.929519 -7.288631 20.517584 -32.823369 27.109830 -10.791474 0.818397 -0.333976 0.000000 0.000000 0.000000 -85.887641 -8.086427 -2.960565 2.461733 0.119607 0.266940 8.482828 1.597002 0.366948 0.955380 0.311449 0.305731 0.000000 0.000000 0.000000 6.429322 1.287961 -0.330789 -7.515760 -0.347891 -2.330077 9.829260 0.621173 -6.016505 0.000000 0.000000 0.000000 8.056523 0.969499 0.503961 0.186069 3.057156 -6.216832 1.362912 0.644419 -2.921972 28.260903 -35.269157 -41.797797 -40.128912 -88.693435 -39.802292 0.000000 0.000000 0.000000 6.832157 1.204359 -0.408098 -0.240807 2.815001 11.782853 -0.358472 2.693044 2.837126 -12.638824 32.099376 50.826597 179.059911 60.614623 179.522138 0.000000 0.000000 0.000000 
0.317535 158.772186 19.568264 0.000000 0.000000 0.000000 -85.699237 -7.602771 -0.661865 -10.360360 17.521827 15.477892 4.219203 4.169642 3.884169 11.671591 28.762449 -19.058132 -5.817722 -0.080421 1.057078 0.000000 0.000000 0.000000 -87.055433 -4.982009 0.484303 -15.229959 -15.645184 -11.980082 16.805628 -3.744991 -7.266727 20.056712 -32.505202 27.235791 -10.451393 0.787660 -0.320226 0.000000 0.000000 0.000000 -85.712638 -8.093624 -3.031833 2.901912 0.795422 0.057149 10.714858 2.636845 0.208797 1.135658 0.349432 0.231967 0.000000 0.000000 0.000000 8.588510 2.320496 -0.494108 -5.751815 -0.866052 -2.565938 10.845343 -0.118082 -6.772347 0.000000 0.000000 0.000000 10.127497 1.974898 0.267971 0.384420 3.004129 -5.495054 2.246169 0.189430 -3.297003 27.217240 -37.837943 -38.463319 -24.103406 -88.335984 -23.566461 0.000000 0.000000 0.000000 8.997519 2.223912 -0.522490 -0.302654 3.202884 12.098569 -0.661486 2.917145 2.674258 -16.963547 29.791397 52.636491 178.769929 57.204682 -179.957029 0.000000 0.000000 0.000000 
